<svg width="14" height="15" viewBox="0 0 14 15" fill="none" xmlns="http://www.w3.org/2000/svg">
<path d="M1.92578 1H10.4258H11.9258C12.4781 1 12.9258 1.44772 12.9258 2V3.08579C12.9258 3.351 12.8204 3.60536 12.6329 3.79289L8.71867 7.70711C8.53114 7.89464 8.42578 8.149 8.42578 8.41421V12.882C8.42578 13.6253 7.64347 14.1088 6.97857 13.7764L5.97857 13.2764C5.63978 13.107 5.42578 12.7607 5.42578 12.382V8.41421C5.42578 8.149 5.32042 7.89464 5.13289 7.70711L1.21867 3.79289C1.03114 3.60536 0.925781 3.351 0.925781 3.08579V2C0.925781 1.44772 1.3735 1 1.92578 1Z" stroke="#9FA2B4" stroke-width="1.4" stroke-linecap="round"/>
</svg>
