<svg width="16" height="16" viewBox="0 0 16 16" fill="none" xmlns="http://www.w3.org/2000/svg">
<path fill-rule="evenodd" clip-rule="evenodd" d="M8 2.5C4.96243 2.5 2.5 4.96243 2.5 8C2.5 11.0376 4.96243 13.5 8 13.5C11.0376 13.5 13.5 11.0376 13.5 8C13.5 4.96243 11.0376 2.5 8 2.5ZM1.5 8C1.5 4.41015 4.41015 1.5 8 1.5C11.5899 1.5 14.5 4.41015 14.5 8C14.5 11.5899 11.5899 14.5 8 14.5C4.41015 14.5 1.5 11.5899 1.5 8ZM8 3.83333C8.27614 3.83333 8.5 4.05719 8.5 4.33333V7.79289L10.3536 9.64645C10.5488 9.84171 10.5488 10.1583 10.3536 10.3536C10.1583 10.5488 9.84171 10.5488 9.64645 10.3536L7.5 8.20711V4.33333C7.5 4.05719 7.72386 3.83333 8 3.83333Z" fill="#262B68"/>
</svg>
