<svg width="24" height="24" viewBox="0 0 24 24" fill="none" xmlns="http://www.w3.org/2000/svg">
<path fill-rule="evenodd" clip-rule="evenodd" d="M10.5 3.75C6.77208 3.75 3.75 6.77208 3.75 10.5C3.75 14.2279 6.77208 17.25 10.5 17.25C14.2279 17.25 17.25 14.2279 17.25 10.5C17.25 6.77208 14.2279 3.75 10.5 3.75ZM2.25 10.5C2.25 5.94365 5.94365 2.25 10.5 2.25C15.0563 2.25 18.75 5.94365 18.75 10.5C18.75 15.0563 15.0563 18.75 10.5 18.75C5.94365 18.75 2.25 15.0563 2.25 10.5Z" fill="#262B68"/>
<path fill-rule="evenodd" clip-rule="evenodd" d="M15.4697 15.4697C15.7626 15.1768 16.2374 15.1768 16.5303 15.4697L21.0303 19.9697C21.3232 20.2626 21.3232 20.7374 21.0303 21.0303C20.7374 21.3232 20.2626 21.3232 19.9697 21.0303L15.4697 16.5303C15.1768 16.2374 15.1768 15.7626 15.4697 15.4697Z" fill="#262B68"/>
</svg>
