<svg width="48" height="48" viewBox="0 0 48 48" fill="none" xmlns="http://www.w3.org/2000/svg">
<rect x="0.5" y="0.5" width="47" height="47" rx="23.5" fill="#F4F4F7" stroke="#262B68"/>
<path fill-rule="evenodd" clip-rule="evenodd" d="M31.5303 16.4697C31.8232 16.7626 31.8232 17.2374 31.5303 17.5303L17.5303 31.5303C17.2374 31.8232 16.7626 31.8232 16.4697 31.5303C16.1768 31.2374 16.1768 30.7626 16.4697 30.4697L30.4697 16.4697C30.7626 16.1768 31.2374 16.1768 31.5303 16.4697Z" fill="#262B68"/>
<path fill-rule="evenodd" clip-rule="evenodd" d="M16.4697 16.4697C16.7626 16.1768 17.2374 16.1768 17.5303 16.4697L31.5303 30.4697C31.8232 30.7626 31.8232 31.2374 31.5303 31.5303C31.2374 31.8232 30.7626 31.8232 30.4697 31.5303L16.4697 17.5303C16.1768 17.2374 16.1768 16.7626 16.4697 16.4697Z" fill="#262B68"/>
</svg>
