<svg width="24" height="24" viewBox="0 0 24 24" fill="none" xmlns="http://www.w3.org/2000/svg">
<path d="M7 5H15.5H17C17.5523 5 18 5.44772 18 6V7.08579C18 7.351 17.8946 7.60536 17.7071 7.79289L13.7929 11.7071C13.6054 11.8946 13.5 12.149 13.5 12.4142V16.882C13.5 17.6253 12.7177 18.1088 12.0528 17.7764L11.0528 17.2764C10.714 17.107 10.5 16.7607 10.5 16.382V12.4142C10.5 12.149 10.3946 11.8946 10.2071 11.7071L6.29289 7.79289C6.10536 7.60536 6 7.351 6 7.08579V6C6 5.44772 6.44772 5 7 5Z" stroke="#9FA2B4" stroke-width="1.4" stroke-linecap="round"/>
</svg>
