<svg width="24" height="24" viewBox="0 0 24 24" fill="none" xmlns="http://www.w3.org/2000/svg">
<circle cx="15.6992" cy="7" r="3" fill="#0097AC"/>
<path fill-rule="evenodd" clip-rule="evenodd" d="M11.9956 5.3H6.69921C5.76032 5.3 4.99921 6.06112 4.99921 7V8.08579C4.99921 8.53666 5.17831 8.96906 5.49712 9.28787L9.41134 13.2021C9.4676 13.2583 9.49921 13.3347 9.49921 13.4142V17.382C9.49921 18.0259 9.86301 18.6145 10.4389 18.9025L11.4389 19.4025C12.5693 19.9677 13.8992 19.1457 13.8992 17.882V13.4142C13.8992 13.3347 13.9308 13.2583 13.9871 13.2021L15.3682 11.8209C14.8778 11.6858 14.4175 11.4779 13.9998 11.2094L12.9971 12.2121C12.6783 12.5309 12.4992 12.9633 12.4992 13.4142V17.882C12.4992 18.105 12.2645 18.25 12.065 18.1503L11.065 17.6503C10.9634 17.5995 10.8992 17.4956 10.8992 17.382V13.4142C10.8992 12.9633 10.7201 12.5309 10.4013 12.2121L6.48707 8.29792C6.43081 8.24166 6.39921 8.16535 6.39921 8.08579V7C6.39921 6.83432 6.53352 6.7 6.69921 6.7H11.7081C11.737 6.21112 11.8362 5.74114 11.9956 5.3Z" fill="#0097AC"/>
</svg>
